<mxfile host="app.diagrams.net" modified="2024-01-27T02:10:05.018Z" agent="Mozilla/5.0 (Windows NT 10.0; Win64; x64; rv:122.0) Gecko/20100101 Firefox/122.0" etag="VGLT32r03JzpFK0mVzrw" version="23.0.2" type="device">
  <diagram name="Page-1" id="9SPY-1jE95_w-7bM1FNT">
    <mxGraphModel dx="7440" dy="5520" grid="1" gridSize="10" guides="1" tooltips="1" connect="1" arrows="1" fold="1" page="1" pageScale="1" pageWidth="850" pageHeight="1100" math="0" shadow="0">
      <root>
        <mxCell id="0" />
        <mxCell id="1" parent="0" />
        <mxCell id="wlf0oW-GDEVEN6GyA2yv-2" value="Pasien" style="rounded=0;whiteSpace=wrap;html=1;fontFamily=Poppins;fontSource=https%3A%2F%2Ffonts.googleapis.com%2Fcss%3Ffamily%3DPoppins;fontSize=26;" vertex="1" parent="1">
          <mxGeometry x="1200" y="-130" width="400" height="80" as="geometry" />
        </mxCell>
        <mxCell id="wlf0oW-GDEVEN6GyA2yv-3" value="" style="rounded=0;whiteSpace=wrap;html=1;fontFamily=Poppins;fontSource=https%3A%2F%2Ffonts.googleapis.com%2Fcss%3Ffamily%3DPoppins;fontSize=26;" vertex="1" parent="1">
          <mxGeometry x="1200" y="-50" width="400" height="2110" as="geometry" />
        </mxCell>
        <mxCell id="wlf0oW-GDEVEN6GyA2yv-4" value="Sistem Pendaftaran Pasien" style="rounded=0;whiteSpace=wrap;html=1;fontFamily=Poppins;fontSource=https%3A%2F%2Ffonts.googleapis.com%2Fcss%3Ffamily%3DPoppins;fontSize=26;" vertex="1" parent="1">
          <mxGeometry x="1600" y="-130" width="400" height="80" as="geometry" />
        </mxCell>
        <mxCell id="wlf0oW-GDEVEN6GyA2yv-5" value="" style="rounded=0;whiteSpace=wrap;html=1;fontFamily=Poppins;fontSource=https%3A%2F%2Ffonts.googleapis.com%2Fcss%3Ffamily%3DPoppins;fontSize=26;" vertex="1" parent="1">
          <mxGeometry x="1600" y="-50" width="400" height="2110" as="geometry" />
        </mxCell>
        <mxCell id="wlf0oW-GDEVEN6GyA2yv-6" value="Penjaga Loket Pendaftaran" style="rounded=0;whiteSpace=wrap;html=1;fontFamily=Poppins;fontSource=https%3A%2F%2Ffonts.googleapis.com%2Fcss%3Ffamily%3DPoppins;fontSize=26;" vertex="1" parent="1">
          <mxGeometry x="2000" y="-130" width="400" height="80" as="geometry" />
        </mxCell>
        <mxCell id="wlf0oW-GDEVEN6GyA2yv-7" value="" style="rounded=0;whiteSpace=wrap;html=1;fontFamily=Poppins;fontSource=https%3A%2F%2Ffonts.googleapis.com%2Fcss%3Ffamily%3DPoppins;fontSize=26;" vertex="1" parent="1">
          <mxGeometry x="2000" y="-50" width="400" height="2110" as="geometry" />
        </mxCell>
        <mxCell id="wlf0oW-GDEVEN6GyA2yv-8" value="Mesin APM" style="rounded=0;whiteSpace=wrap;html=1;fontFamily=Poppins;fontSource=https%3A%2F%2Ffonts.googleapis.com%2Fcss%3Ffamily%3DPoppins;fontSize=26;" vertex="1" parent="1">
          <mxGeometry x="2400" y="-130" width="400" height="80" as="geometry" />
        </mxCell>
        <mxCell id="wlf0oW-GDEVEN6GyA2yv-9" value="" style="rounded=0;whiteSpace=wrap;html=1;fontFamily=Poppins;fontSource=https%3A%2F%2Ffonts.googleapis.com%2Fcss%3Ffamily%3DPoppins;fontSize=26;" vertex="1" parent="1">
          <mxGeometry x="2400" y="-50" width="400" height="2110" as="geometry" />
        </mxCell>
        <mxCell id="wlf0oW-GDEVEN6GyA2yv-11" style="edgeStyle=orthogonalEdgeStyle;rounded=0;orthogonalLoop=1;jettySize=auto;html=1;entryX=0.5;entryY=0;entryDx=0;entryDy=0;exitX=0.494;exitY=0.873;exitDx=0;exitDy=0;exitPerimeter=0;fontSize=23;" edge="1" parent="1" source="wlf0oW-GDEVEN6GyA2yv-12" target="wlf0oW-GDEVEN6GyA2yv-63">
          <mxGeometry relative="1" as="geometry" />
        </mxCell>
        <mxCell id="wlf0oW-GDEVEN6GyA2yv-12" value="" style="ellipse;html=1;shape=startState;fillColor=#000000;strokeColor=#ff0000;fontFamily=Poppins;fontSource=https%3A%2F%2Ffonts.googleapis.com%2Fcss%3Ffamily%3DPoppins;fontSize=23;" vertex="1" parent="1">
          <mxGeometry x="1380.06" y="10" width="30" height="30" as="geometry" />
        </mxCell>
        <mxCell id="wlf0oW-GDEVEN6GyA2yv-13" value="" style="ellipse;html=1;shape=endState;fillColor=#000000;strokeColor=#ff0000;fontFamily=Poppins;fontSource=https%3A%2F%2Ffonts.googleapis.com%2Fcss%3Ffamily%3DPoppins;fontSize=23;" vertex="1" parent="1">
          <mxGeometry x="1392.5499999999997" y="1970" width="30" height="30" as="geometry" />
        </mxCell>
        <mxCell id="wlf0oW-GDEVEN6GyA2yv-14" style="edgeStyle=orthogonalEdgeStyle;rounded=0;orthogonalLoop=1;jettySize=auto;html=1;entryX=0.5;entryY=0;entryDx=0;entryDy=0;fontFamily=Poppins;fontSource=https%3A%2F%2Ffonts.googleapis.com%2Fcss%3Ffamily%3DPoppins;fontSize=23;" edge="1" parent="1" source="wlf0oW-GDEVEN6GyA2yv-15" target="wlf0oW-GDEVEN6GyA2yv-18">
          <mxGeometry relative="1" as="geometry" />
        </mxCell>
        <mxCell id="wlf0oW-GDEVEN6GyA2yv-15" value="Pilih pasien baru atau lama" style="rounded=1;whiteSpace=wrap;html=1;arcSize=33;fontFamily=Poppins;fontSource=https%3A%2F%2Ffonts.googleapis.com%2Fcss%3Ffamily%3DPoppins;fontSize=23;" vertex="1" parent="1">
          <mxGeometry x="1296.4199999999998" y="208" width="197.41" height="96" as="geometry" />
        </mxCell>
        <mxCell id="wlf0oW-GDEVEN6GyA2yv-17" style="edgeStyle=orthogonalEdgeStyle;rounded=0;orthogonalLoop=1;jettySize=auto;html=1;entryX=0.486;entryY=0.001;entryDx=0;entryDy=0;fontFamily=Poppins;fontSource=https%3A%2F%2Ffonts.googleapis.com%2Fcss%3Ffamily%3DPoppins;fontSize=23;exitX=1;exitY=0.5;exitDx=0;exitDy=0;entryPerimeter=0;" edge="1" parent="1" source="wlf0oW-GDEVEN6GyA2yv-18" target="wlf0oW-GDEVEN6GyA2yv-23">
          <mxGeometry relative="1" as="geometry">
            <Array as="points">
              <mxPoint x="1500" y="375" />
            </Array>
          </mxGeometry>
        </mxCell>
        <mxCell id="wlf0oW-GDEVEN6GyA2yv-67" style="edgeStyle=orthogonalEdgeStyle;rounded=0;orthogonalLoop=1;jettySize=auto;html=1;entryX=0.5;entryY=0;entryDx=0;entryDy=0;" edge="1" parent="1" source="wlf0oW-GDEVEN6GyA2yv-18" target="wlf0oW-GDEVEN6GyA2yv-20">
          <mxGeometry relative="1" as="geometry" />
        </mxCell>
        <mxCell id="wlf0oW-GDEVEN6GyA2yv-18" value="" style="rhombus;whiteSpace=wrap;html=1;fontFamily=Poppins;fontSource=https%3A%2F%2Ffonts.googleapis.com%2Fcss%3Ffamily%3DPoppins;fontSize=23;" vertex="1" parent="1">
          <mxGeometry x="1384.9199999999998" y="360" width="20" height="30" as="geometry" />
        </mxCell>
        <mxCell id="wlf0oW-GDEVEN6GyA2yv-70" style="edgeStyle=orthogonalEdgeStyle;rounded=0;orthogonalLoop=1;jettySize=auto;html=1;entryX=0;entryY=0.5;entryDx=0;entryDy=0;" edge="1" parent="1" source="wlf0oW-GDEVEN6GyA2yv-20" target="wlf0oW-GDEVEN6GyA2yv-28">
          <mxGeometry relative="1" as="geometry">
            <Array as="points">
              <mxPoint x="1298" y="555" />
            </Array>
          </mxGeometry>
        </mxCell>
        <mxCell id="wlf0oW-GDEVEN6GyA2yv-20" value="Input No Rekam Medis" style="rounded=1;whiteSpace=wrap;html=1;arcSize=33;fontFamily=Poppins;fontSource=https%3A%2F%2Ffonts.googleapis.com%2Fcss%3Ffamily%3DPoppins;fontSize=23;" vertex="1" parent="1">
          <mxGeometry x="1217.51" y="410" width="165.1" height="110" as="geometry" />
        </mxCell>
        <mxCell id="wlf0oW-GDEVEN6GyA2yv-21" value="[pasien lama]" style="text;html=1;strokeColor=none;fillColor=none;align=center;verticalAlign=middle;whiteSpace=wrap;rounded=0;fontFamily=Poppins;fontSource=https%3A%2F%2Ffonts.googleapis.com%2Fcss%3Ffamily%3DPoppins;fontSize=23;" vertex="1" parent="1">
          <mxGeometry x="1200" y="330" width="180.06" height="30" as="geometry" />
        </mxCell>
        <mxCell id="wlf0oW-GDEVEN6GyA2yv-69" style="edgeStyle=orthogonalEdgeStyle;rounded=0;orthogonalLoop=1;jettySize=auto;html=1;entryX=1;entryY=0.5;entryDx=0;entryDy=0;" edge="1" parent="1" source="wlf0oW-GDEVEN6GyA2yv-23" target="wlf0oW-GDEVEN6GyA2yv-28">
          <mxGeometry relative="1" as="geometry">
            <Array as="points">
              <mxPoint x="1500" y="555" />
            </Array>
          </mxGeometry>
        </mxCell>
        <mxCell id="wlf0oW-GDEVEN6GyA2yv-23" value="Mengisi data lengkap pasien" style="rounded=1;whiteSpace=wrap;html=1;arcSize=33;fontFamily=Poppins;fontSource=https%3A%2F%2Ffonts.googleapis.com%2Fcss%3Ffamily%3DPoppins;fontSize=23;" vertex="1" parent="1">
          <mxGeometry x="1422.55" y="415" width="159.94" height="105" as="geometry" />
        </mxCell>
        <mxCell id="wlf0oW-GDEVEN6GyA2yv-24" value="[pasien baru]" style="text;html=1;strokeColor=none;fillColor=none;align=center;verticalAlign=middle;whiteSpace=wrap;rounded=0;fontFamily=Poppins;fontSource=https%3A%2F%2Ffonts.googleapis.com%2Fcss%3Ffamily%3DPoppins;fontSize=23;" vertex="1" parent="1">
          <mxGeometry x="1404.9199999999998" y="330" width="179.94" height="30" as="geometry" />
        </mxCell>
        <mxCell id="wlf0oW-GDEVEN6GyA2yv-25" style="edgeStyle=orthogonalEdgeStyle;rounded=0;orthogonalLoop=1;jettySize=auto;html=1;fontFamily=Poppins;fontSource=https%3A%2F%2Ffonts.googleapis.com%2Fcss%3Ffamily%3DPoppins;fontSize=23;" edge="1" parent="1" source="wlf0oW-GDEVEN6GyA2yv-26" target="wlf0oW-GDEVEN6GyA2yv-30">
          <mxGeometry relative="1" as="geometry" />
        </mxCell>
        <mxCell id="wlf0oW-GDEVEN6GyA2yv-26" value="&lt;font style=&quot;font-size: 23px;&quot;&gt;Mengisi No Whatsapp, pilihan hari dan waktu kontrol&lt;br style=&quot;font-size: 23px;&quot;&gt;dan dokter.&lt;br style=&quot;font-size: 23px;&quot;&gt;&lt;/font&gt;" style="rounded=1;whiteSpace=wrap;html=1;arcSize=33;fontFamily=Poppins;fontSource=https%3A%2F%2Ffonts.googleapis.com%2Fcss%3Ffamily%3DPoppins;fontSize=23;" vertex="1" parent="1">
          <mxGeometry x="1261.16" y="600" width="267.51" height="150" as="geometry" />
        </mxCell>
        <mxCell id="wlf0oW-GDEVEN6GyA2yv-27" style="edgeStyle=orthogonalEdgeStyle;rounded=0;orthogonalLoop=1;jettySize=auto;html=1;entryX=0.5;entryY=0;entryDx=0;entryDy=0;fontFamily=Poppins;fontSource=https%3A%2F%2Ffonts.googleapis.com%2Fcss%3Ffamily%3DPoppins;fontSize=23;" edge="1" parent="1" source="wlf0oW-GDEVEN6GyA2yv-28" target="wlf0oW-GDEVEN6GyA2yv-26">
          <mxGeometry relative="1" as="geometry" />
        </mxCell>
        <mxCell id="wlf0oW-GDEVEN6GyA2yv-28" value="" style="rhombus;whiteSpace=wrap;html=1;fontFamily=Poppins;fontSource=https%3A%2F%2Ffonts.googleapis.com%2Fcss%3Ffamily%3DPoppins;fontSize=23;" vertex="1" parent="1">
          <mxGeometry x="1385.12" y="540" width="20" height="30" as="geometry" />
        </mxCell>
        <mxCell id="wlf0oW-GDEVEN6GyA2yv-29" style="edgeStyle=orthogonalEdgeStyle;rounded=0;orthogonalLoop=1;jettySize=auto;html=1;entryX=0.5;entryY=0;entryDx=0;entryDy=0;fontFamily=Poppins;fontSource=https%3A%2F%2Ffonts.googleapis.com%2Fcss%3Ffamily%3DPoppins;fontSize=23;" edge="1" parent="1" source="wlf0oW-GDEVEN6GyA2yv-30" target="wlf0oW-GDEVEN6GyA2yv-33">
          <mxGeometry relative="1" as="geometry" />
        </mxCell>
        <mxCell id="wlf0oW-GDEVEN6GyA2yv-30" value="Validasi Data" style="rounded=1;whiteSpace=wrap;html=1;arcSize=33;fontFamily=Poppins;fontSource=https%3A%2F%2Ffonts.googleapis.com%2Fcss%3Ffamily%3DPoppins;fontSize=23;" vertex="1" parent="1">
          <mxGeometry x="1695.6200000000001" y="625" width="208.77" height="100" as="geometry" />
        </mxCell>
        <mxCell id="wlf0oW-GDEVEN6GyA2yv-31" style="edgeStyle=orthogonalEdgeStyle;rounded=0;orthogonalLoop=1;jettySize=auto;html=1;entryX=0;entryY=0.5;entryDx=0;entryDy=0;fontFamily=Poppins;fontSource=https%3A%2F%2Ffonts.googleapis.com%2Fcss%3Ffamily%3DPoppins;fontSize=23;" edge="1" parent="1" source="wlf0oW-GDEVEN6GyA2yv-33" target="wlf0oW-GDEVEN6GyA2yv-36">
          <mxGeometry relative="1" as="geometry">
            <Array as="points">
              <mxPoint x="1680" y="775" />
              <mxPoint x="1680" y="911" />
            </Array>
          </mxGeometry>
        </mxCell>
        <mxCell id="wlf0oW-GDEVEN6GyA2yv-32" style="edgeStyle=orthogonalEdgeStyle;rounded=0;orthogonalLoop=1;jettySize=auto;html=1;entryX=0.5;entryY=0;entryDx=0;entryDy=0;fontFamily=Poppins;fontSource=https%3A%2F%2Ffonts.googleapis.com%2Fcss%3Ffamily%3DPoppins;fontSize=23;" edge="1" parent="1" source="wlf0oW-GDEVEN6GyA2yv-33" target="wlf0oW-GDEVEN6GyA2yv-50">
          <mxGeometry relative="1" as="geometry">
            <mxPoint x="1837.49" y="1080.69" as="targetPoint" />
            <Array as="points">
              <mxPoint x="1950" y="775" />
              <mxPoint x="1950" y="1060" />
              <mxPoint x="1769" y="1060" />
            </Array>
          </mxGeometry>
        </mxCell>
        <mxCell id="wlf0oW-GDEVEN6GyA2yv-33" value="" style="rhombus;whiteSpace=wrap;html=1;fontFamily=Poppins;fontSource=https%3A%2F%2Ffonts.googleapis.com%2Fcss%3Ffamily%3DPoppins;fontSize=23;" vertex="1" parent="1">
          <mxGeometry x="1789.9999999999998" y="760.0000000000001" width="20" height="30" as="geometry" />
        </mxCell>
        <mxCell id="wlf0oW-GDEVEN6GyA2yv-34" value="[tidak valid]" style="text;html=1;strokeColor=none;fillColor=none;align=center;verticalAlign=middle;whiteSpace=wrap;rounded=0;fontFamily=Poppins;fontSource=https%3A%2F%2Ffonts.googleapis.com%2Fcss%3Ffamily%3DPoppins;fontSize=23;" vertex="1" parent="1">
          <mxGeometry x="1628.96" y="740" width="161.04" height="30" as="geometry" />
        </mxCell>
        <mxCell id="wlf0oW-GDEVEN6GyA2yv-73" style="edgeStyle=orthogonalEdgeStyle;rounded=0;orthogonalLoop=1;jettySize=auto;html=1;entryX=1;entryY=0.5;entryDx=0;entryDy=0;" edge="1" parent="1" source="wlf0oW-GDEVEN6GyA2yv-36" target="wlf0oW-GDEVEN6GyA2yv-48">
          <mxGeometry relative="1" as="geometry">
            <Array as="points">
              <mxPoint x="1812" y="1020" />
              <mxPoint x="1505" y="1020" />
            </Array>
          </mxGeometry>
        </mxCell>
        <mxCell id="wlf0oW-GDEVEN6GyA2yv-36" value="Menampilkan ulang form pendaftaran" style="rounded=1;whiteSpace=wrap;html=1;arcSize=33;fontFamily=Poppins;fontSource=https%3A%2F%2Ffonts.googleapis.com%2Fcss%3Ffamily%3DPoppins;fontSize=23;" vertex="1" parent="1">
          <mxGeometry x="1699.97" y="855.69" width="223.78" height="110" as="geometry" />
        </mxCell>
        <mxCell id="wlf0oW-GDEVEN6GyA2yv-37" style="edgeStyle=orthogonalEdgeStyle;rounded=0;orthogonalLoop=1;jettySize=auto;html=1;fontFamily=Poppins;fontSource=https%3A%2F%2Ffonts.googleapis.com%2Fcss%3Ffamily%3DPoppins;fontSize=23;entryX=0.342;entryY=0.01;entryDx=0;entryDy=0;entryPerimeter=0;" edge="1" parent="1" source="wlf0oW-GDEVEN6GyA2yv-39" target="wlf0oW-GDEVEN6GyA2yv-41">
          <mxGeometry relative="1" as="geometry">
            <mxPoint x="1743.7299999999998" y="1265.69" as="targetPoint" />
            <Array as="points">
              <mxPoint x="1733" y="1220" />
              <mxPoint x="1733" y="1220" />
            </Array>
          </mxGeometry>
        </mxCell>
        <mxCell id="wlf0oW-GDEVEN6GyA2yv-38" style="edgeStyle=orthogonalEdgeStyle;rounded=0;orthogonalLoop=1;jettySize=auto;html=1;entryX=0.5;entryY=0;entryDx=0;entryDy=0;fontFamily=Poppins;fontSource=https%3A%2F%2Ffonts.googleapis.com%2Fcss%3Ffamily%3DPoppins;fontSize=23;" edge="1" parent="1" source="wlf0oW-GDEVEN6GyA2yv-39" target="wlf0oW-GDEVEN6GyA2yv-42">
          <mxGeometry relative="1" as="geometry">
            <Array as="points">
              <mxPoint x="1794" y="1246" />
              <mxPoint x="1990" y="1246" />
              <mxPoint x="1990" y="1440" />
              <mxPoint x="1819" y="1440" />
            </Array>
          </mxGeometry>
        </mxCell>
        <mxCell id="wlf0oW-GDEVEN6GyA2yv-39" value="" style="rounded=1;whiteSpace=wrap;html=1;labelBackgroundColor=none;fillColor=#000000;strokeColor=#6D1F00;fontColor=#ffffff;arcSize=50;fontFamily=Poppins;fontSource=https%3A%2F%2Ffonts.googleapis.com%2Fcss%3Ffamily%3DPoppins;fontSize=23;" vertex="1" parent="1">
          <mxGeometry x="1670.6" y="1185.69" width="196.27" height="10" as="geometry" />
        </mxCell>
        <mxCell id="wlf0oW-GDEVEN6GyA2yv-40" style="edgeStyle=orthogonalEdgeStyle;rounded=0;orthogonalLoop=1;jettySize=auto;html=1;fontFamily=Poppins;fontSource=https%3A%2F%2Ffonts.googleapis.com%2Fcss%3Ffamily%3DPoppins;fontSize=23;" edge="1" parent="1" source="wlf0oW-GDEVEN6GyA2yv-41" target="wlf0oW-GDEVEN6GyA2yv-79">
          <mxGeometry relative="1" as="geometry">
            <mxPoint x="1741.2399999999998" y="1640" as="targetPoint" />
            <Array as="points">
              <mxPoint x="1650" y="1620" />
              <mxPoint x="1741" y="1620" />
            </Array>
          </mxGeometry>
        </mxCell>
        <mxCell id="wlf0oW-GDEVEN6GyA2yv-41" value="&lt;font style=&quot;font-size: 23px;&quot;&gt;Menampilkan halaman konfirmasi beserta &lt;/font&gt;&lt;font style=&quot;font-size: 23px;&quot;&gt;nomor&lt;br style=&quot;font-size: 23px;&quot;&gt;pendaftaran dan detail pendaftaran &lt;/font&gt;" style="rounded=1;whiteSpace=wrap;html=1;arcSize=33;fontFamily=Poppins;fontSource=https%3A%2F%2Ffonts.googleapis.com%2Fcss%3Ffamily%3DPoppins;fontSize=23;" vertex="1" parent="1">
          <mxGeometry x="1610" y="1270" width="360" height="140" as="geometry" />
        </mxCell>
        <mxCell id="wlf0oW-GDEVEN6GyA2yv-78" style="edgeStyle=orthogonalEdgeStyle;rounded=0;orthogonalLoop=1;jettySize=auto;html=1;entryX=0.638;entryY=0.043;entryDx=0;entryDy=0;entryPerimeter=0;" edge="1" parent="1" source="wlf0oW-GDEVEN6GyA2yv-42" target="wlf0oW-GDEVEN6GyA2yv-79">
          <mxGeometry relative="1" as="geometry">
            <mxPoint x="1796.2399999999998" y="1640" as="targetPoint" />
          </mxGeometry>
        </mxCell>
        <mxCell id="wlf0oW-GDEVEN6GyA2yv-42" value="mengirimkan&lt;br style=&quot;font-size: 23px;&quot;&gt;konfirmasi pendaftaran ke pasien melalui email atau&lt;br style=&quot;font-size: 23px;&quot;&gt;Whastapp" style="rounded=1;whiteSpace=wrap;html=1;arcSize=33;fontFamily=Poppins;fontSource=https%3A%2F%2Ffonts.googleapis.com%2Fcss%3Ffamily%3DPoppins;fontSize=23;" vertex="1" parent="1">
          <mxGeometry x="1660.85" y="1455" width="316.27" height="140" as="geometry" />
        </mxCell>
        <mxCell id="wlf0oW-GDEVEN6GyA2yv-44" style="edgeStyle=orthogonalEdgeStyle;rounded=0;orthogonalLoop=1;jettySize=auto;html=1;entryX=0.5;entryY=0;entryDx=0;entryDy=0;fontFamily=Poppins;fontSource=https%3A%2F%2Ffonts.googleapis.com%2Fcss%3Ffamily%3DPoppins;fontSize=23;exitX=0.499;exitY=0.789;exitDx=0;exitDy=0;exitPerimeter=0;" edge="1" parent="1" source="wlf0oW-GDEVEN6GyA2yv-79" target="wlf0oW-GDEVEN6GyA2yv-53">
          <mxGeometry relative="1" as="geometry">
            <mxPoint x="1768.6470588235293" y="1650" as="sourcePoint" />
          </mxGeometry>
        </mxCell>
        <mxCell id="wlf0oW-GDEVEN6GyA2yv-46" value="[valid]" style="text;html=1;strokeColor=none;fillColor=none;align=center;verticalAlign=middle;whiteSpace=wrap;rounded=0;fontFamily=Poppins;fontSource=https%3A%2F%2Ffonts.googleapis.com%2Fcss%3Ffamily%3DPoppins;fontSize=23;" vertex="1" parent="1">
          <mxGeometry x="1823.7399999999998" y="740" width="110.06" height="30" as="geometry" />
        </mxCell>
        <mxCell id="wlf0oW-GDEVEN6GyA2yv-74" style="edgeStyle=orthogonalEdgeStyle;rounded=0;orthogonalLoop=1;jettySize=auto;html=1;entryX=0;entryY=0.5;entryDx=0;entryDy=0;" edge="1" parent="1" target="wlf0oW-GDEVEN6GyA2yv-50">
          <mxGeometry relative="1" as="geometry">
            <mxPoint x="1369.9967741935484" y="1090" as="sourcePoint" />
            <mxPoint x="1745.6299999999999" y="1125" as="targetPoint" />
            <Array as="points">
              <mxPoint x="1370" y="1125" />
            </Array>
          </mxGeometry>
        </mxCell>
        <mxCell id="wlf0oW-GDEVEN6GyA2yv-48" value="Mengisi form pendaftaran dengan benar" style="rounded=1;whiteSpace=wrap;html=1;arcSize=33;fontFamily=Poppins;fontSource=https%3A%2F%2Ffonts.googleapis.com%2Fcss%3Ffamily%3DPoppins;fontSize=23;" vertex="1" parent="1">
          <mxGeometry x="1261.16" y="960" width="243.84" height="130" as="geometry" />
        </mxCell>
        <mxCell id="wlf0oW-GDEVEN6GyA2yv-49" style="edgeStyle=orthogonalEdgeStyle;rounded=0;orthogonalLoop=1;jettySize=auto;html=1;entryX=0.5;entryY=0;entryDx=0;entryDy=0;fontFamily=Poppins;fontSource=https%3A%2F%2Ffonts.googleapis.com%2Fcss%3Ffamily%3DPoppins;fontSize=23;" edge="1" parent="1" source="wlf0oW-GDEVEN6GyA2yv-50" target="wlf0oW-GDEVEN6GyA2yv-39">
          <mxGeometry relative="1" as="geometry" />
        </mxCell>
        <mxCell id="wlf0oW-GDEVEN6GyA2yv-50" value="" style="rhombus;whiteSpace=wrap;html=1;fontFamily=Poppins;fontSource=https%3A%2F%2Ffonts.googleapis.com%2Fcss%3Ffamily%3DPoppins;fontSize=23;" vertex="1" parent="1">
          <mxGeometry x="1758.7299999999998" y="1110" width="20" height="30" as="geometry" />
        </mxCell>
        <mxCell id="wlf0oW-GDEVEN6GyA2yv-51" style="edgeStyle=orthogonalEdgeStyle;rounded=0;orthogonalLoop=1;jettySize=auto;html=1;fontFamily=Poppins;fontSource=https%3A%2F%2Ffonts.googleapis.com%2Fcss%3Ffamily%3DPoppins;fontSize=23;" edge="1" parent="1" source="wlf0oW-GDEVEN6GyA2yv-53" target="wlf0oW-GDEVEN6GyA2yv-57">
          <mxGeometry relative="1" as="geometry">
            <Array as="points">
              <mxPoint x="2595" y="1691" />
            </Array>
          </mxGeometry>
        </mxCell>
        <mxCell id="wlf0oW-GDEVEN6GyA2yv-52" style="edgeStyle=orthogonalEdgeStyle;rounded=0;orthogonalLoop=1;jettySize=auto;html=1;entryX=0;entryY=0.5;entryDx=0;entryDy=0;fontFamily=Poppins;fontSource=https%3A%2F%2Ffonts.googleapis.com%2Fcss%3Ffamily%3DPoppins;fontSize=23;" edge="1" parent="1" source="wlf0oW-GDEVEN6GyA2yv-53" target="wlf0oW-GDEVEN6GyA2yv-55">
          <mxGeometry relative="1" as="geometry">
            <Array as="points">
              <mxPoint x="1769" y="1778" />
            </Array>
          </mxGeometry>
        </mxCell>
        <mxCell id="wlf0oW-GDEVEN6GyA2yv-53" value="" style="rhombus;whiteSpace=wrap;html=1;fontFamily=Poppins;fontSource=https%3A%2F%2Ffonts.googleapis.com%2Fcss%3Ffamily%3DPoppins;fontSize=23;" vertex="1" parent="1">
          <mxGeometry x="1758.7199999999998" y="1675.69" width="20" height="30" as="geometry" />
        </mxCell>
        <mxCell id="wlf0oW-GDEVEN6GyA2yv-83" style="edgeStyle=orthogonalEdgeStyle;rounded=0;orthogonalLoop=1;jettySize=auto;html=1;entryX=0.5;entryY=0;entryDx=0;entryDy=0;" edge="1" parent="1" source="wlf0oW-GDEVEN6GyA2yv-55" target="wlf0oW-GDEVEN6GyA2yv-61">
          <mxGeometry relative="1" as="geometry">
            <Array as="points">
              <mxPoint x="2215" y="1860" />
              <mxPoint x="1408" y="1860" />
            </Array>
          </mxGeometry>
        </mxCell>
        <mxCell id="wlf0oW-GDEVEN6GyA2yv-55" value="Registrasi ulang" style="rounded=1;whiteSpace=wrap;html=1;arcSize=33;fontFamily=Poppins;fontSource=https%3A%2F%2Ffonts.googleapis.com%2Fcss%3Ffamily%3DPoppins;fontSize=23;" vertex="1" parent="1">
          <mxGeometry x="2100" y="1730" width="230" height="95.69" as="geometry" />
        </mxCell>
        <mxCell id="wlf0oW-GDEVEN6GyA2yv-85" style="edgeStyle=orthogonalEdgeStyle;rounded=0;orthogonalLoop=1;jettySize=auto;html=1;entryX=1;entryY=0.5;entryDx=0;entryDy=0;" edge="1" parent="1" source="wlf0oW-GDEVEN6GyA2yv-57" target="wlf0oW-GDEVEN6GyA2yv-61">
          <mxGeometry relative="1" as="geometry">
            <Array as="points">
              <mxPoint x="2595" y="1925" />
            </Array>
          </mxGeometry>
        </mxCell>
        <mxCell id="wlf0oW-GDEVEN6GyA2yv-57" value="Registrasi ulang" style="rounded=1;whiteSpace=wrap;html=1;arcSize=33;fontFamily=Poppins;fontSource=https%3A%2F%2Ffonts.googleapis.com%2Fcss%3Ffamily%3DPoppins;fontSize=23;" vertex="1" parent="1">
          <mxGeometry x="2480" y="1730" width="230" height="95.69" as="geometry" />
        </mxCell>
        <mxCell id="wlf0oW-GDEVEN6GyA2yv-58" value="[Pasien lama &amp;amp;&amp;amp; punya bpjs]" style="text;html=1;strokeColor=none;fillColor=none;align=center;verticalAlign=middle;whiteSpace=wrap;rounded=0;fontFamily=Poppins;fontSource=https%3A%2F%2Ffonts.googleapis.com%2Fcss%3Ffamily%3DPoppins;fontSize=23;" vertex="1" parent="1">
          <mxGeometry x="1990" y="1650" width="396.25" height="30" as="geometry" />
        </mxCell>
        <mxCell id="wlf0oW-GDEVEN6GyA2yv-59" value="[else]" style="text;html=1;strokeColor=none;fillColor=none;align=center;verticalAlign=middle;whiteSpace=wrap;rounded=0;fontFamily=Poppins;fontSource=https%3A%2F%2Ffonts.googleapis.com%2Fcss%3Ffamily%3DPoppins;fontSize=23;" vertex="1" parent="1">
          <mxGeometry x="1733.8599999999997" y="1740" width="199.94" height="30" as="geometry" />
        </mxCell>
        <mxCell id="wlf0oW-GDEVEN6GyA2yv-60" style="edgeStyle=orthogonalEdgeStyle;rounded=0;orthogonalLoop=1;jettySize=auto;html=1;entryX=0.5;entryY=0;entryDx=0;entryDy=0;fontFamily=Poppins;fontSource=https%3A%2F%2Ffonts.googleapis.com%2Fcss%3Ffamily%3DPoppins;fontSize=23;" edge="1" parent="1" source="wlf0oW-GDEVEN6GyA2yv-61" target="wlf0oW-GDEVEN6GyA2yv-13">
          <mxGeometry relative="1" as="geometry">
            <mxPoint x="1407.6099999999997" y="1940" as="targetPoint" />
          </mxGeometry>
        </mxCell>
        <mxCell id="wlf0oW-GDEVEN6GyA2yv-61" value="" style="rhombus;whiteSpace=wrap;html=1;fontFamily=Poppins;fontSource=https%3A%2F%2Ffonts.googleapis.com%2Fcss%3Ffamily%3DPoppins;fontSize=23;" vertex="1" parent="1">
          <mxGeometry x="1397.5499999999997" y="1910" width="20" height="30" as="geometry" />
        </mxCell>
        <mxCell id="wlf0oW-GDEVEN6GyA2yv-62" style="edgeStyle=orthogonalEdgeStyle;rounded=0;orthogonalLoop=1;jettySize=auto;html=1;entryX=0.5;entryY=0;entryDx=0;entryDy=0;fontSize=23;" edge="1" parent="1" source="wlf0oW-GDEVEN6GyA2yv-63" target="wlf0oW-GDEVEN6GyA2yv-15">
          <mxGeometry relative="1" as="geometry" />
        </mxCell>
        <mxCell id="wlf0oW-GDEVEN6GyA2yv-63" value="Buka website" style="rounded=1;whiteSpace=wrap;html=1;arcSize=33;fontFamily=Poppins;fontSource=https%3A%2F%2Ffonts.googleapis.com%2Fcss%3Ffamily%3DPoppins;fontSize=23;" vertex="1" parent="1">
          <mxGeometry x="1287.59" y="80" width="214.94" height="90" as="geometry" />
        </mxCell>
        <mxCell id="wlf0oW-GDEVEN6GyA2yv-79" value="" style="rounded=1;whiteSpace=wrap;html=1;labelBackgroundColor=none;fillColor=#000000;strokeColor=#6D1F00;fontColor=#ffffff;arcSize=50;fontFamily=Poppins;fontSource=https%3A%2F%2Ffonts.googleapis.com%2Fcss%3Ffamily%3DPoppins;fontSize=23;" vertex="1" parent="1">
          <mxGeometry x="1670.59" y="1640" width="196.27" height="10" as="geometry" />
        </mxCell>
      </root>
    </mxGraphModel>
  </diagram>
</mxfile>
